<svg width="251" height="33" viewBox="0 0 251 33" fill="none" xmlns="http://www.w3.org/2000/svg">
<path d="M11.404 25L0.728 1.03H5.454L14.056 21.158H12.628L21.23 1.03H25.786L15.11 25H11.404ZM33.9869 25.34C31.1082 25.34 28.8529 24.5467 27.2209 22.96C25.5889 21.3733 24.7729 19.1973 24.7729 16.432C24.7729 14.6413 25.1242 13.0773 25.8269 11.74C26.5296 10.4027 27.5042 9.36 28.7509 8.612C30.0202 7.864 31.4936 7.49 33.1709 7.49C34.8256 7.49 36.2082 7.84133 37.3189 8.544C38.4296 9.24667 39.2682 10.2327 39.8349 11.502C40.4242 12.7713 40.7189 14.256 40.7189 15.956V17.078H28.2069V14.834H37.6929L37.1149 15.31C37.1149 13.7233 36.7749 12.5107 36.0949 11.672C35.4376 10.8333 34.4742 10.414 33.2049 10.414C31.7996 10.414 30.7116 10.9127 29.9409 11.91C29.1929 12.9073 28.8189 14.3013 28.8189 16.092V16.534C28.8189 18.3927 29.2722 19.7867 30.1789 20.716C31.1082 21.6227 32.4116 22.076 34.0889 22.076C35.0636 22.076 35.9702 21.9513 36.8089 21.702C37.6702 21.43 38.4862 20.9993 39.2569 20.41L40.5149 23.266C39.6989 23.9233 38.7242 24.4333 37.5909 24.796C36.4576 25.1587 35.2562 25.34 33.9869 25.34ZM52.2739 32.616C50.6872 32.616 49.2479 32.446 47.9559 32.106C46.6865 31.766 45.5532 31.2447 44.5559 30.542L45.4739 27.482C46.1312 27.9127 46.8112 28.264 47.5139 28.536C48.2165 28.808 48.9419 29.012 49.6899 29.148C50.4379 29.284 51.1972 29.352 51.9679 29.352C53.5545 29.352 54.7332 28.9553 55.5039 28.162C56.2972 27.3913 56.6939 26.2807 56.6939 24.83V20.716H57.0339C56.6712 21.8947 55.9345 22.8353 54.8239 23.538C53.7359 24.2407 52.4779 24.592 51.0499 24.592C49.5085 24.592 48.1599 24.252 47.0039 23.572C45.8705 22.8693 44.9865 21.872 44.3519 20.58C43.7172 19.288 43.3999 17.7693 43.3999 16.024C43.3999 14.2787 43.7172 12.7713 44.3519 11.502C44.9865 10.21 45.8705 9.224 47.0039 8.544C48.1599 7.84133 49.5085 7.49 51.0499 7.49C52.5005 7.49 53.7585 7.84133 54.8239 8.544C55.9119 9.224 56.6372 10.1533 56.9999 11.332L56.6939 11.128L57.0339 7.83H61.1479C61.0572 8.53267 60.9892 9.24667 60.9439 9.972C60.8985 10.6973 60.8759 11.4113 60.8759 12.114V24.32C60.8759 27.0173 60.1392 29.0687 58.6659 30.474C57.2152 31.902 55.0845 32.616 52.2739 32.616ZM52.2059 21.328C53.5659 21.328 54.6425 20.8747 55.4359 19.968C56.2519 19.0387 56.6599 17.724 56.6599 16.024C56.6599 14.324 56.2519 13.0207 55.4359 12.114C54.6425 11.2073 53.5659 10.754 52.2059 10.754C50.8232 10.754 49.7239 11.2073 48.9079 12.114C48.0919 13.0207 47.6839 14.324 47.6839 16.024C47.6839 17.724 48.0919 19.0387 48.9079 19.968C49.7239 20.8747 50.8232 21.328 52.2059 21.328ZM72.0983 25.34C70.6023 25.34 69.2876 24.9887 68.1542 24.286C67.0209 23.5607 66.1369 22.5293 65.5023 21.192C64.8676 19.8547 64.5503 18.2567 64.5503 16.398C64.5503 14.5393 64.8676 12.9527 65.5023 11.638C66.1369 10.3007 67.0209 9.28067 68.1542 8.578C69.2876 7.85267 70.6023 7.49 72.0983 7.49C73.5489 7.49 74.8183 7.85267 75.9063 8.578C77.0169 9.28067 77.7536 10.2327 78.1163 11.434H77.7423L78.1163 7.83H82.1963C82.1283 8.53267 82.0603 9.24667 81.9923 9.972C81.9469 10.6973 81.9243 11.4113 81.9243 12.114V25H77.7083L77.6743 21.464H78.0823C77.7196 22.6427 76.9829 23.5833 75.8723 24.286C74.7616 24.9887 73.5036 25.34 72.0983 25.34ZM73.2883 22.076C74.6256 22.076 75.7023 21.6113 76.5183 20.682C77.3343 19.73 77.7423 18.302 77.7423 16.398C77.7423 14.494 77.3343 13.0773 76.5183 12.148C75.7023 11.2187 74.6256 10.754 73.2883 10.754C71.9509 10.754 70.8743 11.2187 70.0583 12.148C69.2423 13.0773 68.8343 14.494 68.8343 16.398C68.8343 18.302 69.2309 19.73 70.0243 20.682C70.8403 21.6113 71.9283 22.076 73.2883 22.076ZM86.5522 25V12.114C86.5522 11.4113 86.5296 10.6973 86.4842 9.972C86.4389 9.24667 86.3709 8.53267 86.2802 7.83H90.3942L90.7342 11.23H90.3262C90.8702 10.0287 91.6749 9.11067 92.7402 8.476C93.8056 7.81867 95.0409 7.49 96.4462 7.49C98.4636 7.49 99.9822 8.05667 101.002 9.19C102.022 10.3233 102.532 12.0913 102.532 14.494V25H98.2822V14.698C98.2822 13.3153 98.0102 12.3293 97.4662 11.74C96.9449 11.128 96.1516 10.822 95.0862 10.822C93.7716 10.822 92.7289 11.23 91.9582 12.046C91.1876 12.862 90.8022 13.95 90.8022 15.31V25H86.5522ZM116.709 25V1.03H121.095V11.026H133.369V1.03H137.755V25H133.369V14.664H121.095V25H116.709ZM150.451 25.34C148.683 25.34 147.153 24.9773 145.861 24.252C144.569 23.5267 143.56 22.4953 142.835 21.158C142.132 19.8207 141.781 18.234 141.781 16.398C141.781 14.562 142.132 12.9867 142.835 11.672C143.56 10.3347 144.569 9.30333 145.861 8.578C147.153 7.85267 148.683 7.49 150.451 7.49C152.219 7.49 153.749 7.85267 155.041 8.578C156.355 9.30333 157.364 10.3347 158.067 11.672C158.792 12.9867 159.155 14.562 159.155 16.398C159.155 18.234 158.792 19.8207 158.067 21.158C157.364 22.4953 156.355 23.5267 155.041 24.252C153.749 24.9773 152.219 25.34 150.451 25.34ZM150.451 22.076C151.788 22.076 152.853 21.6113 153.647 20.682C154.44 19.73 154.837 18.302 154.837 16.398C154.837 14.494 154.44 13.0773 153.647 12.148C152.853 11.2187 151.788 10.754 150.451 10.754C149.113 10.754 148.048 11.2187 147.255 12.148C146.461 13.0773 146.065 14.494 146.065 16.398C146.065 18.302 146.461 19.73 147.255 20.682C148.048 21.6113 149.113 22.076 150.451 22.076ZM163.16 25V1.03H173.632C176.261 1.03 178.29 1.65333 179.718 2.9C181.168 4.14667 181.894 5.88067 181.894 8.102C181.894 9.57533 181.565 10.8333 180.908 11.876C180.273 12.9187 179.355 13.7233 178.154 14.29C176.952 14.834 175.536 15.106 173.904 15.106L174.38 14.46H175.536C176.488 14.46 177.338 14.7093 178.086 15.208C178.834 15.7067 179.446 16.466 179.922 17.486L183.424 25H178.596L175.06 17.214C174.742 16.4207 174.255 15.8993 173.598 15.65C172.963 15.4007 172.192 15.276 171.286 15.276H167.546V25H163.16ZM167.546 12.046H172.918C174.459 12.046 175.626 11.7287 176.42 11.094C177.236 10.4367 177.644 9.48467 177.644 8.238C177.644 6.99133 177.236 6.05067 176.42 5.416C175.626 4.78133 174.459 4.464 172.918 4.464H167.546V12.046ZM194.557 25.34C191.679 25.34 189.423 24.5467 187.791 22.96C186.159 21.3733 185.343 19.1973 185.343 16.432C185.343 14.6413 185.695 13.0773 186.397 11.74C187.1 10.4027 188.075 9.36 189.321 8.612C190.591 7.864 192.064 7.49 193.741 7.49C195.396 7.49 196.779 7.84133 197.889 8.544C199 9.24667 199.839 10.2327 200.405 11.502C200.995 12.7713 201.289 14.256 201.289 15.956V17.078H188.777V14.834H198.263L197.685 15.31C197.685 13.7233 197.345 12.5107 196.665 11.672C196.008 10.8333 195.045 10.414 193.775 10.414C192.37 10.414 191.282 10.9127 190.511 11.91C189.763 12.9073 189.389 14.3013 189.389 16.092V16.534C189.389 18.3927 189.843 19.7867 190.749 20.716C191.679 21.6227 192.982 22.076 194.659 22.076C195.634 22.076 196.541 21.9513 197.379 21.702C198.241 21.43 199.057 20.9993 199.827 20.41L201.085 23.266C200.269 23.9233 199.295 24.4333 198.161 24.796C197.028 25.1587 195.827 25.34 194.557 25.34ZM216.38 25.34C213.887 25.34 211.745 24.8413 209.954 23.844C208.186 22.824 206.826 21.396 205.874 19.56C204.922 17.7013 204.446 15.514 204.446 12.998C204.446 10.482 204.922 8.306 205.874 6.47C206.826 4.634 208.186 3.21733 209.954 2.22C211.745 1.2 213.887 0.689999 216.38 0.689999C218.058 0.689999 219.565 0.927999 220.902 1.404C222.262 1.88 223.43 2.58267 224.404 3.512L222.976 6.98C221.911 6.11867 220.88 5.50667 219.882 5.144C218.908 4.75867 217.786 4.566 216.516 4.566C214.091 4.566 212.232 5.30267 210.94 6.776C209.671 8.22667 209.036 10.3007 209.036 12.998C209.036 15.6953 209.671 17.7807 210.94 19.254C212.232 20.7273 214.091 21.464 216.516 21.464C217.786 21.464 218.908 21.2827 219.882 20.92C220.88 20.5347 221.911 19.9 222.976 19.016L224.404 22.484C223.43 23.3907 222.262 24.0933 220.902 24.592C219.565 25.0907 218.058 25.34 216.38 25.34ZM225.354 25L236.2 1.03H239.872L250.854 25H246.4L243.476 18.268L245.244 19.458H230.862L232.698 18.268L229.774 25H225.354ZM238.002 5.722L233.208 17.078L232.324 16.024H243.748L243.034 17.078L238.138 5.722H238.002Z" fill="black"/>
</svg>
